<svg id="Layer_1" data-name="Layer 1" xmlns="http://www.w3.org/2000/svg" viewBox="0 0 185 36.52"><path d="M4.12,36.44l1.2-.75L24.83,23.55a.47.47,0,0,0,.26-.47c0-1.16,0-2.32,0-3.49v-.34a2.94,2.94,0,0,0-.33.19l-8.6,5.34L2.46,33.32c-.48.29-.38.13-.39.68v2.49h-2c0-.08,0-.16,0-.23q0-9.88,0-19.75a.46.46,0,0,1,.28-.43L20.71,3.33l4.76-3,.25-.15L26,.36l25.1,15.73a.52.52,0,0,1,.28.49q0,9.8,0,19.57v.34H49.44c0-1.06,0-2.11,0-3.17s0-2.13,0-3.19V17.4l-3.49-2.19V36.49H44.6V14.8c0-.55.08-.39-.38-.69l-2.85-1.79-.29-.17c0,.85,0,1.65,0,2.45V36.49H39.74V32.07q0-10.18,0-20.37a.56.56,0,0,0-.29-.54c-1-.59-2-1.21-2.93-1.82l-.29-.17V36.49H34.9V8.3L31.37,6.09V36.45a5.12,5.12,0,0,1-1.42,0V5.19L26.52,3l-.06,0a0,0,0,0,0,0,0s0,.08,0,.12q0,16.61,0,33.23v0c-.21.06-4.21.09-4.77,0l.2-.14,3-1.89a.35.35,0,0,0,.21-.34c0-1.23,0-2.46,0-3.69a1.72,1.72,0,0,0,0-.2c-.11.07-.21.11-.29.17l-8.72,5.43-.95.59a.66.66,0,0,1-.27.09H12.75l0,0a0,0,0,0,1,0,0l.09-.07L25,28.77l0,0,0,0V24.65l-.25.13L13.18,32l-7,4.34a.78.78,0,0,1-.49.14H4.13Zm-2-15.29,23-14.3A37.57,37.57,0,0,0,25,2.75L2.09,17Zm0,5.55.34-.2,22.42-14a.43.43,0,0,0,.25-.41c0-1.19,0-2.39,0-3.58,0-.07,0-.14,0-.27l-.31.19L9.88,17.73,2.34,22.42a.5.5,0,0,0-.27.49c0,.66,0,1.32,0,2Zm23-13-.29.16L14.9,20,2.34,27.82a.51.51,0,0,0-.27.49c0,1.15,0,2.3,0,3.45v.34l.34-.2,6.11-3.8L24.84,18a.46.46,0,0,0,.25-.45c0-1.16,0-2.32,0-3.48Z" style="fill:#6a6a6a"/><path d="M76.4,26.12q0,5.05-2.65,7.64T66,36.35H61.15V16.26h5.42q4.82,0,7.32,2.52C75.56,20.46,76.4,22.9,76.4,26.12Zm-1.53.05c0-2.87-.73-5-2.19-6.49s-3.6-2.18-6.44-2.18H62.55V35.12h3.32Q74.87,35.12,74.87,26.17Z" style="fill:#6a6a6a"/><path d="M100,36.35h-14v-1L97.82,17.58H86.59V16.26H99.7v1L87.91,35H100Z" style="fill:#6a6a6a"/><path d="M110.74,36.35V16.26h1.4V36.35Z" style="fill:#6a6a6a"/><path d="M139.19,36.35h-1.41l-11.9-17.83h-.11c.11,2.12.16,3.73.16,4.81v13h-1.35V16.26H126l11.88,17.81H138c-.08-1.65-.12-3.21-.12-4.7V16.26h1.36Z" style="fill:#6a6a6a"/><path d="M151.63,36.35V16.26H153V35h9.57v1.32Z" style="fill:#6a6a6a"/><path d="M177.45,27.26l5.88-11h1.51l-6.69,12.33v7.76h-1.44V28.7L170,16.26h1.6Z" style="fill:#6a6a6a"/></svg>