<?xml version="1.0" encoding="utf-8"?>
<!-- Generator: Adobe Illustrator 24.2.1, SVG Export Plug-In . SVG Version: 6.00 Build 0)  -->
<svg version="1.1" id="Layer_1" xmlns="http://www.w3.org/2000/svg" xmlns:xlink="http://www.w3.org/1999/xlink" x="0px" y="0px"
	 viewBox="0 0 51.4 36.5" style="enable-background:new 0 0 51.4 36.5;" xml:space="preserve">
<style type="text/css">
	.st0{fill:#6A6A6A;}
</style>
<path class="st0" d="M4.1,36.4l1.2-0.8l19.5-12.1c0.2-0.1,0.3-0.3,0.3-0.5c0-1.2,0-2.3,0-3.5v-0.3c-0.1,0.1-0.2,0.1-0.3,0.2
	l-8.6,5.3L2.5,33.3C2,33.6,2.1,33.4,2.1,34v2.5h-2c0-0.1,0-0.2,0-0.2c0-6.6,0-13.2,0-19.8c0-0.2,0.1-0.4,0.3-0.4L20.7,3.3l4.8-3
	l0.3-0.1L26,0.4l25.1,15.7c0.2,0.1,0.3,0.3,0.3,0.5c0,6.5,0,13.1,0,19.6v0.3h-1.9c0-1.1,0-2.1,0-3.2s0-2.1,0-3.2V17.4l-3.5-2.2v21.3
	h-1.3V14.8c0-0.6,0.1-0.4-0.4-0.7l-2.8-1.8l-0.3-0.2c0,0.9,0,1.6,0,2.4v21.9h-1.3v-4.4c0-6.8,0-13.6,0-20.4c0-0.2-0.1-0.4-0.3-0.5
	c-1-0.6-2-1.2-2.9-1.8l-0.3-0.2v27.3h-1.3V8.3l-3.5-2.2v30.4c-0.5,0.1-0.9,0.1-1.4,0V5.2L26.5,3h-0.1l0,0c0,0,0,0.1,0,0.1
	c0,11.1,0,22.1,0,33.2l0,0c-0.2,0.1-4.2,0.1-4.8,0l0.2-0.1l3-1.9c0.1-0.1,0.2-0.2,0.2-0.3c0-1.2,0-2.5,0-3.7c0-0.1,0-0.1,0-0.2
	c-0.1,0.1-0.2,0.1-0.3,0.2l-8.7,5.4l-0.9,0.6c-0.1,0-0.2,0.1-0.3,0.1h-2.1l0,0l0,0l0.1-0.1L25,28.8l0,0l0,0v-4.1l-0.3,0.1L13.2,32
	l-7,4.3c-0.1,0.1-0.3,0.1-0.5,0.1L4.1,36.4L4.1,36.4z M2.1,21.1l23-14.3c0-1.4,0-2.7-0.1-4.1L2.1,17L2.1,21.1z M2.1,26.7l0.3-0.2
	l22.4-14c0.2-0.1,0.3-0.2,0.3-0.4c0-1.2,0-2.4,0-3.6c0-0.1,0-0.1,0-0.3l-0.3,0.2L9.9,17.7l-7.5,4.7c-0.2,0.1-0.3,0.3-0.3,0.5
	c0,0.7,0,1.3,0,2L2.1,26.7z M25.1,13.7l-0.3,0.2L14.9,20L2.3,27.8c-0.2,0.1-0.3,0.3-0.3,0.5c0,1.1,0,2.3,0,3.5v0.3l0.3-0.2l6.1-3.8
	L24.8,18c0.2-0.1,0.3-0.3,0.3-0.5c0-1.2,0-2.3,0-3.5L25.1,13.7z"/>
</svg>
