<svg width="24" height="25" viewBox="0 0 24 25" fill="none" xmlns="http://www.w3.org/2000/svg">
<path d="M22 22.3587H2M2 11.3587L10.126 4.85873C10.6579 4.43323 11.3188 4.20141 12 4.20141C12.6812 4.20141 13.3421 4.43323 13.874 4.85873L22 11.3587" stroke="black" stroke-width="1.5" stroke-linecap="round"/>
<path opacity="0.5" d="M15.5 5.85873V3.85873C15.5 3.72613 15.5527 3.59895 15.6464 3.50518C15.7402 3.41141 15.8674 3.35873 16 3.35873H18.5C18.6326 3.35873 18.7598 3.41141 18.8536 3.50518C18.9473 3.59895 19 3.72613 19 3.85873V8.85873" stroke="black" stroke-width="1.5" stroke-linecap="round"/>
<path d="M4 22.3587V9.85873M20 22.3587V9.85873" stroke="black" stroke-width="1.5" stroke-linecap="round"/>
<path d="M15.5692 14.8127H12M12 14.8127H8.43085M12 14.8127V11.2436M12 14.8127V18.3819" stroke="#808080" stroke-width="1.5" stroke-linecap="round"/>
</svg>
